<svg width="44" height="44" viewBox="0 0 44 44" fill="none" xmlns="http://www.w3.org/2000/svg">
<path d="M9.52489 24.0435C10.1674 23.2086 10.9274 22.4404 11.5715 21.6487C12.6769 20.29 13.7426 18.8953 14.725 17.4447C16.0389 15.5043 17.4727 13.8165 19.4608 12.533C21.6733 11.1046 24.2611 10.2288 26.8931 10.073C26.9171 10.0715 26.9411 10.0701 26.9651 10.0689C29.0572 9.95573 31.1972 10.365 33.0272 11.4083C35.156 12.6219 36.7177 14.5551 37.5947 16.8273C37.8187 17.4077 38.0123 17.9996 38.1893 18.5958C40.0522 24.8707 32.5155 28.7677 29.2135 29.9507C25.9115 31.1336 18.6049 31.8692 16.9769 32.8175C15.2136 33.8445 12.8801 34.0637 11.0301 33.1328C8.82136 32.0214 7.83422 29.2909 8.16904 26.9357C8.32546 25.8352 8.8627 24.904 9.52489 24.0435Z" fill="white" fill-opacity="0.2"/>
<path fill-rule="evenodd" clip-rule="evenodd" d="M3.66675 22L3.66675 38.5H11.0001V22H3.66675Z" stroke="white" stroke-linecap="round"/>
<path fill-rule="evenodd" clip-rule="evenodd" d="M18.3333 5.5L18.3333 38.5H25.6666V5.5H18.3333Z" stroke="white" stroke-linecap="round"/>
<path fill-rule="evenodd" clip-rule="evenodd" d="M33 12.8333V38.5H40.3333V12.8333H33Z" stroke="white" stroke-linecap="round"/>
</svg>
