<svg width="44" height="44" viewBox="0 0 44 44" fill="none" xmlns="http://www.w3.org/2000/svg">
<path d="M3.83427 29.0217C4.71766 27.8738 5.76275 26.8175 6.64833 25.7289C8.16827 23.8606 9.63363 21.9429 10.9844 19.9483C12.7911 17.2804 14.7626 14.9596 17.4961 13.1948C20.5384 11.2307 24.0965 10.0265 27.7155 9.81226C27.7486 9.81021 27.7816 9.80832 27.8146 9.80663C30.6912 9.65104 33.6337 10.2138 36.1499 11.6483C39.0771 13.317 41.2244 15.9752 42.4302 19.0994C42.7382 19.8974 43.0044 20.7113 43.2478 21.5312C45.8093 30.1591 35.4464 35.5175 30.9061 37.1441C26.3659 38.7706 16.3193 39.7821 14.0808 41.086C11.6562 42.4982 8.44768 42.7995 5.90394 41.5195C2.86691 39.9913 1.5096 36.2369 1.96998 32.9985C2.18505 31.4853 2.92375 30.2049 3.83427 29.0217Z" fill="white" fill-opacity="0.7"/>
<path fill-rule="evenodd" clip-rule="evenodd" d="M11 3.66663V22.1666C11 27.1372 15.0294 31.1666 20 31.1666H24C28.9706 31.1666 33 27.1372 33 22.1666V3.66663H11Z" stroke="black" stroke-linecap="round"/>
<path d="M12.8335 38.5H31.1668" stroke="black" stroke-linecap="round"/>
<path d="M21.9998 31.1666V38.5" stroke="black"/>
<path fill-rule="evenodd" clip-rule="evenodd" d="M11 9.16663H9.16667C6.1291 9.16663 3.66667 11.6291 3.66667 14.6666V14.6666C3.66667 17.7042 6.1291 20.1666 9.16667 20.1666H11L11 9.16663Z" stroke="black" stroke-linecap="round"/>
<path fill-rule="evenodd" clip-rule="evenodd" d="M33 20.1666H34.8333C37.8709 20.1666 40.3333 17.7042 40.3333 14.6666V14.6666C40.3333 11.6291 37.8709 9.16663 34.8333 9.16663H33V20.1666Z" stroke="black" stroke-linecap="round"/>
</svg>
