<svg width="205" height="45" viewBox="0 0 205 45" fill="none" xmlns="http://www.w3.org/2000/svg">
<g clip-path="url(#clip0_1441_75)">
<path fill-rule="evenodd" clip-rule="evenodd" d="M53.5559 29.1702C54.6937 27.8437 56.1355 24.7921 56.6054 15.2062L56.6607 10.0405H73.1199V29.1796H76.8466V37.3593H72.3414V33.7827H55.1267V37.3593H50.6123V29.1702H53.5605H53.5559ZM58.8534 29.1702H68.3383V14.2499L61.364 14.3296L61.1797 18.6937C60.6638 25.3499 59.8438 28.0312 58.8488 29.1702H58.8534ZM88.3859 15.5015C94.1303 15.5015 97.8294 19.4718 97.8294 24.7921C97.8294 30.0983 94.1303 34.0827 88.3859 34.0827C82.6416 34.0827 78.9425 30.1124 78.9425 24.7921C78.9425 19.4718 82.6416 15.5015 88.3859 15.5015ZM88.3859 29.864C91.1176 29.864 93.1307 27.853 93.1307 24.7921C93.1307 21.7968 91.0854 19.7577 88.3859 19.7577C85.7602 19.7577 83.6873 21.7171 83.6873 24.7921C83.6873 27.7452 85.6865 29.864 88.3859 29.864Z" fill="#004C60"/>
<path d="M105.103 15.5015H100.976V34.0828H105.536V22.725L110.963 28.6312H111.082L116.361 22.725V34.0828H120.917V15.5015H116.91L111.161 22.2375L105.103 15.5015ZM185.971 15.5015H190.564V22.7671L197.335 15.5015H203.13L195.092 24.3328L203.817 34.0828H197.823L190.568 26.5921V34.0781H185.975V15.5015H185.971ZM128.652 15.5015H124.064V34.0828H128.652V26.5921L135.907 34.0828H141.9L133.18 24.3281L141.223 15.4968H135.428L128.656 22.7625V15.4968L128.652 15.5015ZM151.422 20.2031L151.357 22.1906C151.127 32.6625 147.985 34.514 142.95 34.0031V29.4562C145.654 29.6437 146.751 28.3312 146.875 21.2625L146.967 15.5015H160.787V33.8906H156.13V20.2031H151.422ZM168.6 15.5015H163.938V34.0828H168.6L177.117 22.3125V34.0781H181.774V15.5062H177.117L168.595 27.2765V15.5109L168.6 15.5015Z" fill="#004C60"/>
<path d="M4.58819 44.9672H25.1794V36.1641H9.11642V18.1406L21.0658 9.75939L33.0105 18.136V26.1047H41.6616V16.0406C41.6616 14.3672 40.9568 12.7688 39.6025 11.85L23.5395 0.94689C21.8904 -0.168735 20.2412 -0.149985 18.5921 0.94689C14.1974 3.89064 4.91064 10.2985 2.93904 11.6391C0.958232 12.9844 0.465332 14.5641 0.465332 16.0453V40.7766C0.465332 42.7922 2.52446 44.9672 4.58358 44.9672H4.58819Z" fill="url(#paint0_linear_1441_75)"/>
<path d="M25.1838 44.9719V30.6891C25.1838 28.1579 27.1508 26.1047 29.5831 26.1047H41.6706L25.1792 44.9719H25.1838Z" fill="#FBBC33"/>
</g>
<defs>
<linearGradient id="paint0_linear_1441_75" x1="1.38203" y1="8.92502" x2="31.6596" y2="36.1917" gradientUnits="userSpaceOnUse">
<stop stop-color="#6BBD3F"/>
<stop offset="0.43" stop-color="#2CA465"/>
<stop offset="0.83" stop-color="#148F82"/>
<stop offset="1" stop-color="#0276A2"/>
</linearGradient>
<clipPath id="clip0_1441_75">
<rect width="204.07" height="45" fill="white" transform="translate(0.465332)"/>
</clipPath>
</defs>
</svg>
