<svg width="44" height="44" viewBox="0 0 44 44" fill="none" xmlns="http://www.w3.org/2000/svg">
<path d="M8.78856 24.0435C9.43102 23.2086 10.1911 22.4404 10.8352 21.6487C11.9406 20.29 13.0063 18.8953 13.9886 17.4447C15.3026 15.5043 16.7364 13.8165 18.7244 12.533C20.937 11.1046 23.5248 10.2288 26.1567 10.073C26.1808 10.0715 26.2048 10.0701 26.2288 10.0689C28.3209 9.95573 30.4609 10.365 32.2908 11.4083C34.4197 12.6219 35.9814 14.5551 36.8583 16.8273C37.0823 17.4077 37.2759 17.9996 37.453 18.5958C39.3158 24.8707 31.7792 28.7677 28.4772 29.9507C25.1752 31.1336 17.8686 31.8692 16.2406 32.8175C14.4773 33.8445 12.1438 34.0637 10.2938 33.1328C8.08503 32.0214 7.09789 29.2909 7.43271 26.9357C7.58913 25.8352 8.12637 24.904 8.78856 24.0435Z" fill="white" fill-opacity="0.7"/>
<path d="M15.1667 9.66667C15.1667 7.64162 16.8083 6 18.8333 6C20.8584 6 22.5 7.64162 22.5 9.66667V13.3333H31.6667V22.5H35.3333C37.3584 22.5 39 24.1416 39 26.1667C39 28.1917 37.3584 29.8333 35.3333 29.8333H31.6667V39H22.5V35.3333C22.5 33.3083 20.8584 31.6667 18.8333 31.6667C16.8083 31.6667 15.1667 33.3083 15.1667 35.3333V39H6V29.8333H9.66667C11.6917 29.8333 13.3333 28.1917 13.3333 26.1667C13.3333 24.1416 11.6917 22.5 9.66667 22.5H6V13.3333H15.1667V9.66667Z" stroke="black"/>
</svg>
