<svg width="134" height="45" viewBox="0 0 134 45" fill="none" xmlns="http://www.w3.org/2000/svg">
<g clip-path="url(#clip0_1441_105)">
<path d="M52.8444 28.8844H50.106V12.8018H61.7824V15.3744H52.8444V28.8844Z" fill="black"/>
<path d="M70.5164 12.8018L77.327 28.8844H74.3824L73.1032 25.9374H64.9091L63.6536 28.8844H60.7588L67.5694 12.8018H70.5164ZM65.9586 23.3363H72.0799L69.1353 15.6966H68.8273L65.9586 23.3363Z" fill="black"/>
<path d="M82.2192 12.8018L87.6464 20.7637L92.9456 12.8018H95.8926V28.8844H93.1778V17.0895H93.0759L88.0301 24.5682H87.0328L81.9373 17.0895H81.8354V28.8844H79.2485V12.8018H82.2192Z" fill="black"/>
<path d="M101.429 12.8018L106.856 20.7637L112.157 12.8018H115.102V28.8844H112.387V17.0895H112.285L107.24 24.5682H106.242L101.147 17.0895H101.045V28.8844H98.458V12.8018H101.429Z" fill="black"/>
<path d="M126.781 12.8018L133.594 28.8844H130.649L129.37 25.9374H121.174L119.918 28.8844H117.023L123.836 12.8018H126.781ZM122.223 23.3363H128.345L125.398 15.6966H125.092L122.223 23.3363Z" fill="black"/>
<path d="M50.1133 34.5957C50.1133 33.4421 50.9353 32.4897 52.0582 32.4897C52.7523 32.4897 53.1526 32.774 53.553 33.1578L53.3634 33.3615C53.0247 33.018 52.6362 32.7622 52.0511 32.7622C51.1177 32.7622 50.4118 33.5605 50.4118 34.5957C50.4118 35.6238 51.1295 36.4293 52.0582 36.4293C52.6196 36.4293 53.0034 36.2018 53.3966 35.7944L53.5909 35.991C53.1787 36.415 52.7357 36.7017 52.0463 36.7017C50.9353 36.7017 50.1133 35.7754 50.1133 34.5957Z" fill="black"/>
<path d="M55.4693 32.8379H54.1143V32.5583H57.1157V32.8379H55.7583V36.6305H55.4693V32.8379Z" fill="black"/>
<path d="M57.9946 32.5583H59.4065C60.2617 32.5583 60.8515 33.0179 60.8515 33.8139C60.8515 34.6691 60.1456 35.112 59.3354 35.112H58.286V36.6305H57.997V32.5583H57.9946ZM59.352 34.8325C60.0745 34.8325 60.5649 34.4369 60.5649 33.821C60.5649 33.1743 60.0864 32.8379 59.3876 32.8379H58.286V34.8325H59.352Z" fill="black"/>
<path d="M61.541 34.5957C61.541 33.4847 62.3251 32.4897 63.5025 32.4897C64.6822 32.4897 65.4545 33.4728 65.4545 34.5957C65.4545 35.7067 64.6704 36.7017 63.493 36.7017C62.3133 36.7017 61.541 35.7186 61.541 34.5957ZM65.1512 34.5957C65.1512 33.5889 64.4524 32.7622 63.4906 32.7622C62.5289 32.7622 61.8395 33.5771 61.8395 34.5957C61.8395 35.6025 62.5407 36.4293 63.5001 36.4293C64.4643 36.4269 65.1512 35.612 65.1512 34.5957Z" fill="black"/>
<path d="M66.4399 32.5583H66.7289V36.1946L69.259 32.5583H69.5432V36.6305H69.2542V32.9942L66.7313 36.6305H66.4423V32.5583H66.4399Z" fill="black"/>
<path d="M71.7793 32.8379H70.4243V32.5583H73.4257V32.8379H72.0683V36.6305H71.7793V32.8379Z" fill="black"/>
<path d="M74.3071 32.5583H77.074V32.8379H74.5961V34.4369H76.8253V34.7164H74.5961V36.351H77.1025V36.6305H74.3071V32.5583Z" fill="black"/>
<path d="M77.4556 36.5737L77.5432 36.3226C77.6095 36.3582 77.7706 36.3937 77.9151 36.3937C78.216 36.3937 78.7727 36.1947 78.7727 33.3402V32.5608H81.1558V36.633H80.8668V32.8403H79.0499V33.352C79.0499 36.3013 78.4837 36.6732 77.9222 36.6732C77.7801 36.6709 77.5622 36.6188 77.4556 36.5737Z" fill="black"/>
<path d="M82.3164 32.5583H82.6054V34.1929H83.7567C84.4958 34.1929 85.1733 34.5246 85.1733 35.3631C85.1733 36.1496 84.6119 36.6305 83.7851 36.6305H82.3164V32.5583ZM83.733 36.351C84.4342 36.351 84.8725 36.0312 84.8725 35.375C84.8725 34.7709 84.4224 34.4724 83.6999 34.4724H82.6031V36.351H83.733Z" fill="black"/>
<path d="M86.0332 32.5583H86.3222V34.444H88.8119V32.5583H89.101V36.6305H88.8119V34.7235H86.3222V36.6305H86.0332V32.5583Z" fill="black"/>
<path d="M91.74 32.53H92.0171L93.8293 36.6306H93.5143L93.0192 35.4912H90.7237L90.2286 36.6306H89.9277L91.74 32.53ZM92.896 35.2164L91.8726 32.8593L90.8445 35.2164H92.896Z" fill="black"/>
<path d="M95.5847 34.951C94.9285 34.8562 94.4903 34.4369 94.4903 33.7452C94.4903 33.0748 95.0185 32.5583 95.8808 32.5583H97.5154V36.6305H97.2264V35.0007H95.9093L94.7153 36.6305H94.3481L95.5847 34.951ZM97.224 34.7283V32.8379H95.895C95.1891 32.8379 94.7769 33.2098 94.7769 33.7689C94.7769 34.3564 95.2602 34.7283 95.9116 34.7283H97.224Z" fill="black"/>
<path d="M100.346 32.5583H100.635V35.2352L103.113 32.5583H103.509L101.808 34.3564L103.582 36.6305H103.203L101.604 34.5719L100.635 35.5953V36.6305H100.346V32.5583Z" fill="black"/>
<path d="M103.93 34.5957C103.93 33.4847 104.714 32.4897 105.892 32.4897C107.071 32.4897 107.844 33.4728 107.844 34.5957C107.844 35.7067 107.06 36.7017 105.88 36.7017C104.702 36.7017 103.93 35.7186 103.93 34.5957ZM107.543 34.5957C107.543 33.5889 106.842 32.7622 105.88 32.7622C104.92 32.7622 104.229 33.5771 104.229 34.5957C104.229 35.6025 104.93 36.4293 105.889 36.4293C106.853 36.4269 107.543 35.612 107.543 34.5957Z" fill="black"/>
<path d="M108.829 32.5583H109.102L110.663 34.9675L112.224 32.5583H112.496V36.6305H112.207V33.0937L110.667 35.4366H110.646L109.106 33.0937V36.6305H108.829V32.5583Z" fill="black"/>
<path d="M113.66 32.5583H116.671V36.6305H116.382V32.8379H113.949V36.6305H113.66V32.5583Z" fill="black"/>
<path d="M119.309 32.53H119.586L121.399 36.6306H121.084L120.589 35.4912H118.293L117.798 36.6306H117.497L119.309 32.53ZM120.465 35.2164L119.442 32.8593L118.414 35.2164H120.465Z" fill="black"/>
<path d="M122.226 32.5583H122.515V34.444H125.004V32.5583H125.293V36.6305H125.004V34.7235H122.515V36.6305H122.226V32.5583Z" fill="black"/>
<path d="M126.454 32.5583H126.743V36.1946L129.273 32.5583H129.557V36.6305H129.268V32.9942L126.745 36.6305H126.456V32.5583H126.454Z" fill="black"/>
<path d="M131.642 34.951C130.986 34.8562 130.548 34.4369 130.548 33.7452C130.548 33.0748 131.076 32.5583 131.936 32.5583H133.571V36.6305H133.282V35.0007H131.964L130.771 36.6305H130.403L131.642 34.951ZM133.284 34.7283V32.8379H131.957C131.251 32.8379 130.839 33.2098 130.839 33.7689C130.839 34.3564 131.322 34.7283 131.974 34.7283H133.284Z" fill="black"/>
<path d="M8.24264 20.8892L0.40625 23.187V45H8.24264V20.8892Z" fill="#0A8B30"/>
<path d="M38.5883 23.187L30.752 20.8892V45H38.5883V23.187Z" fill="#0A8B30"/>
<path d="M28.4731 0.00244141L20.6367 2.30029V45.0001H28.4731V0.00244141Z" fill="#0A8B30"/>
<path d="M28.4805 0L10.5288 5.26611V45H18.3676V11.5153L28.4805 8.55417V0Z" fill="#004C1D"/>
</g>
<defs>
<clipPath id="clip0_1441_105">
<rect width="133.188" height="45" fill="white" transform="translate(0.40625)"/>
</clipPath>
</defs>
</svg>
