<svg width="207" height="45" viewBox="0 0 207 45" fill="none" xmlns="http://www.w3.org/2000/svg">
<g clip-path="url(#clip0_1441_100)">
<path fill-rule="evenodd" clip-rule="evenodd" d="M192.913 13.1666H197.16L197.134 19.8626H198.056L200.48 13.1666H205.075L201.777 22.0129L205.55 31.8053H200.579L198.134 24.3101H197.134L197.16 31.8053H192.913V13.1666ZM178.608 13.1666H182.828V19.8875H185.85V13.1656H190.068V31.8042H185.85V24.3338H182.828V31.8042H178.608V13.1666ZM163.899 31.829H168.294L168.82 28.6063H171.838L172.364 31.829H176.759L173.063 13.1936H167.619L163.899 31.829ZM170.34 18.8366L171.14 24.5088H169.515L170.34 18.8366ZM152.11 31.8053H157.254C158.377 31.8053 163.048 31.329 163.073 25.6817C163.073 20.9405 159.454 20.1143 157.105 20.1143H156.332V17.64H162.049V13.1677H152.11V31.8053ZM156.332 28.0566V23.836H156.956C157.48 23.836 158.83 23.8597 158.83 25.7832C158.83 27.7348 157.48 28.0566 156.956 28.0566H156.332ZM135.356 13.1666H139.027L142.27 17.5633L145.545 13.1666H149.191V31.8053H144.866V20.4372L142.27 23.6848L139.676 20.4361V31.8053H135.356V13.1666ZM126.439 32.031C131.559 32.031 133.28 27.2315 133.28 22.4622C133.28 17.6918 131.559 12.8934 126.439 12.8934C121.321 12.8934 119.599 17.6918 119.599 22.4622C119.599 27.2315 121.321 32.031 126.439 32.031ZM126.439 27.5069C124.913 27.5069 124.143 25.7357 124.143 22.4611C124.143 19.1876 124.913 17.4143 126.439 17.4143C127.965 17.4143 128.735 19.1876 128.735 22.4622C128.735 25.7357 127.965 27.5069 126.439 27.5069ZM107.086 31.8053H111.406V25.6601H112.856C117.124 25.6601 118.45 21.811 118.45 19.3594C118.45 16.9628 116.924 13.1666 112.856 13.1666H107.086V31.8053ZM111.406 17.2642H112.431C113.405 17.2642 114.03 17.8636 114.03 19.4134C114.03 21.4114 112.979 21.5593 112.431 21.5593H111.406V17.2642ZM92.8276 13.1666H104.614V31.8053H100.294V17.6627H97.1476V31.8042H92.8276V13.1666ZM83.9619 20.3886C84.6596 20.3886 85.9361 19.9382 85.9361 18.5645C85.9361 16.9412 84.463 16.8386 84.0353 16.8386C83.5385 16.8386 82.5903 16.9164 81.6647 17.3657L81.6151 13.3157C83.0882 12.942 84.1379 12.8416 85.3843 12.8416C88.9332 12.8416 90.5056 15.3169 90.5056 17.7372C90.5056 20.0884 89.1556 21.5086 87.8337 22.0604V22.2343C89.1081 22.6382 90.8048 23.8586 90.8048 26.7077C90.8048 30.2328 88.3586 32.179 85.2104 32.179C83.5375 32.1563 82.4391 31.9306 81.115 31.207L81.1906 27.3319C82.4143 27.859 83.2383 27.9076 84.0634 27.9076C85.462 27.9076 86.0096 26.8816 86.0096 26.1353C86.0096 25.0844 85.3357 24.3857 83.8636 24.3857H82.114V20.3897L83.9619 20.3886ZM66.9843 31.8053H71.3529L71.9037 28.5804H74.9245L75.4483 31.8053H79.8169L76.1211 13.1666H70.6779L66.9843 31.8053ZM73.3995 18.7891L74.2246 24.485H72.5755L73.3995 18.7891ZM58.6186 13.1666H67.48V17.8128H63.0121V31.8053H58.6186V13.1666ZM22.4807 0.771484C10.5575 0.771484 0.866699 10.4591 0.866699 22.3823C0.866699 34.2828 10.5586 43.9715 22.4807 43.9715C34.3769 43.9715 44.0667 34.2828 44.0667 22.3823C44.0667 10.4591 34.3769 0.771484 22.4807 0.771484ZM22.4807 42.8915C11.158 42.8915 1.9467 33.6888 1.9467 22.3823C1.9467 11.0585 11.1537 1.85148 22.4807 1.85148C33.7851 1.85148 42.9867 11.0606 42.9867 22.3823C42.9867 33.6866 33.7819 42.8915 22.4807 42.8915Z" fill="#476BF0"/>
<path fill-rule="evenodd" clip-rule="evenodd" d="M16.0507 12.7479C19.7775 11.0893 24.3274 11.1973 26.7689 12.285C27.5365 12.6422 28.0526 12.8582 28.2863 13.284C25.7522 12.6052 24.6645 12.4825 22.5431 12.5342C19.5268 12.5882 15.5138 13.7824 13.9802 14.695L13.3052 15.5351C15.5138 14.2283 19.6348 13.3751 21.9197 13.3026C24.4701 13.2678 26.448 13.5 28.2686 14.1596C28.1606 14.6225 27.9292 14.8554 27.5373 15.0884C20.2596 13.8202 15.9605 15.3183 12.0717 17.8524L11.7878 18.6902C16.1225 15.7125 21.4361 14.8925 26.5568 15.7835C24.7193 16.4261 22.5253 16.5688 20.6885 16.9938C19.1195 17.3518 18.2809 17.4598 16.1911 18.1572C14.072 18.853 12.82 19.5666 12.037 20.4768C11.6621 20.9065 11.3766 21.4049 11.3041 21.9387C11.2709 22.2588 11.2887 22.5466 11.3967 22.8336C11.4815 23.0827 11.679 23.3319 11.8943 23.5818C11.6459 24.0092 11.4283 24.5646 11.7878 25.2072C11.9475 25.5081 12.3579 25.8113 12.7521 26.0998L12.6418 26.4184C12.5878 26.7956 12.5361 27.24 12.786 27.6141C13.2126 28.2922 13.7303 28.7396 14.5503 29.1678C14.6768 29.7216 14.8712 30.166 15.2993 30.561C16.2089 31.398 18.2439 33.0041 21.8634 33.2548C24.5765 33.4345 26.5198 32.6122 27.2519 32.255L28.1429 31.7922C26.6278 32.397 24.0774 32.7549 21.9884 32.5759C18.9567 32.326 16.2474 30.3465 15.908 29.7741C16.0137 29.8435 16.1572 29.8983 16.2798 29.9531C19.8307 31.6656 24.4145 32.5944 30.2836 30.203L30.7673 29.7386C25.4313 31.3972 20.7603 31.3455 15.746 28.7219C15.8008 28.4727 15.908 28.2552 16.1379 28.0808C17.4215 28.6478 18.6535 29.1145 20.1524 29.4169C21.9005 29.7386 23.8977 29.8111 25.5401 29.7386C27.1986 29.6676 30.4795 28.8468 32.0324 28.026C32.1743 27.9018 32.2453 27.6889 32.3873 27.5447C29.3571 28.6478 25.753 29.1678 23.5775 29.0058C21.4546 28.8468 19.5661 28.5954 17.0667 27.4544C17.5473 27.2592 18.0472 27.098 18.5471 26.953C20.1879 27.4544 21.8634 27.7553 23.8437 27.8463C25.8077 27.9358 30.3908 27.206 33.2798 25.4572C33.3701 25.2072 33.4588 24.9372 33.4588 24.9372C33.4588 24.9372 29.445 27.0818 24.8982 27.0818C22.7745 27.0818 21.4731 26.7763 20.5103 26.5449C22.6495 26.1515 25.3441 25.8298 28.3743 25.0638C29.9079 24.6703 31.7994 23.777 32.6557 23.0287C33.387 22.3668 33.9587 21.5098 33.7635 20.6388C33.7249 20.4043 33.4048 19.8543 33.0121 19.656C33.387 19.1747 33.3515 18.7635 33.2991 18.4086C33.2621 18.1371 33.1371 17.8362 32.9789 17.5693C32.7222 17.217 32.3925 16.9241 32.0123 16.7107C32.0865 16.3361 32.0367 15.9475 31.8704 15.6037C31.4963 14.9611 30.8197 14.4096 29.6595 13.8202C29.6063 13.5872 29.462 13.284 29.2144 12.9816C27.7525 11.536 25.3611 10.8402 23.3446 10.8039C23.2327 10.8014 23.1209 10.8001 23.009 10.8C20.6507 10.8 18.7577 11.33 17.5859 11.877C16.9764 12.1408 16.5128 12.4278 16.0507 12.7479ZM29.5152 14.695C30.0167 15.0167 30.5875 15.4988 30.6569 15.9987C30.1231 15.7997 29.5523 15.5898 28.9999 15.4456C29.1789 15.2489 29.4443 14.9457 29.5152 14.695ZM26.8399 16.926C27.4486 16.6922 27.8567 16.4446 28.2154 16.1576C29.0153 16.3705 29.7652 16.6398 30.3746 16.9059C30.2697 17.0625 29.6587 17.6272 29.472 17.6272C29.4625 17.6278 29.4529 17.626 29.4443 17.6218C28.5903 17.388 27.8412 17.1026 26.8399 16.926ZM31.6397 17.6388C32.1203 18.0492 32.2623 18.3346 32.0316 18.7812C31.7123 18.5498 31.3705 18.4241 30.9979 18.2459C31.2278 18.0669 31.443 17.8725 31.6397 17.6388ZM16.8175 19.2819C19.0469 18.6185 21.6513 18.1224 24.0072 17.8362C25.6272 17.6388 26.4858 17.8193 28.0202 18.2289C24.0782 19.2811 20.1879 19.6182 16.4773 20.7083C13.4865 21.5777 12.6927 22.6723 12.6803 22.6723C11.3581 20.8518 15.9419 19.5511 16.8175 19.2819ZM18.9235 21.4751C22.2214 20.7615 25.2901 20.3164 26.556 19.9955C28.0912 19.6182 29.1611 19.2634 29.9079 18.9078C29.9441 18.8538 31.1568 19.4416 31.281 19.582C30.8722 19.923 30.3029 20.2099 29.6765 20.4213C27.8042 21.1002 24.3983 21.813 22.5971 22.0853C20.7773 22.3869 19.2583 22.6176 17.2457 23.1506C16.0847 23.4569 15.2993 23.8133 14.7285 24.189C14.3003 23.9382 14.0512 23.868 13.6593 23.5456C15.0502 22.3668 17.8875 21.7073 18.9227 21.4751H18.9235ZM18.0989 24.3679C21.2386 23.5973 24.0057 23.4561 27.8227 22.4224C29.6587 21.9387 30.9971 21.4195 31.8365 20.7808C31.9599 20.6712 32.0841 20.5833 32.2106 20.4768C33.3161 22.1894 29.1604 23.5101 26.3223 24.1195C24.7524 24.4374 22.5762 24.8293 21.8627 24.9565C20.0112 25.2597 19.401 25.4209 18.1174 25.7951C17.4755 25.5444 16.8329 25.2767 16.2467 24.9727C16.8329 24.7236 17.4755 24.5268 18.0981 24.3687L18.0989 24.3679ZM13.748 24.9372C13.623 25.0452 13.4618 25.1532 13.3376 25.2767C13.0537 25.1147 12.7667 24.7614 12.9087 24.4374C13.1941 24.6179 13.4078 24.7614 13.748 24.9372ZM15.0494 25.6007C15.5848 25.8506 16.1371 26.079 16.654 26.3127C16.3064 26.4398 15.9724 26.6016 15.6573 26.7956C15.2315 26.5633 14.8092 26.3247 14.3906 26.0797C14.5688 25.9193 14.7995 25.7596 15.0494 25.5999V25.6007ZM14.8373 27.4722C14.7115 27.6511 14.6213 27.7923 14.5696 27.9728C14.1221 27.5971 13.9069 27.294 13.9262 26.9538C14.2294 27.1505 14.5325 27.3102 14.8365 27.4722H14.8373Z" fill="#476BF0"/>
</g>
<defs>
<clipPath id="clip0_1441_100">
<rect width="205.2" height="45" fill="white" transform="translate(0.899902)"/>
</clipPath>
</defs>
</svg>
