<svg width="161" height="45" viewBox="0 0 161 45" fill="none" xmlns="http://www.w3.org/2000/svg">
<g clip-path="url(#clip0_1441_61)">
<path d="M92.6739 31.1071L87.4633 16.0259H80.3438L89.7146 41.4945H95.6092L104.972 16.0259H97.8684L92.6739 31.1071Z" fill="black"/>
<path d="M126.311 31.6761V22.4242H132.357V16.027H126.311V10.4216H119.581V16.027H115.619V22.4242H119.581V33.2273C119.581 39.3526 123.144 41.9594 127.671 41.9594C129.524 41.9594 131.029 41.6475 132.349 41.0798V34.7387C132.349 34.7387 131.211 35.1944 129.835 35.1944C127.974 35.1944 126.311 34.3868 126.311 31.6761Z" fill="black"/>
<path d="M146.397 15.5701C139.158 15.5701 133.271 21.4874 133.271 28.7642C133.271 36.0409 139.158 41.9582 146.397 41.9582C153.636 41.9582 159.522 36.0409 159.522 28.7642C159.522 21.4874 153.636 15.5701 146.397 15.5701ZM146.397 35.1933C142.873 35.1933 140.001 32.3066 140.001 28.7642C140.001 25.2218 142.873 22.3351 146.397 22.3351C149.921 22.3351 152.793 25.2218 152.793 28.7642C152.793 32.3066 149.921 35.1933 146.397 35.1933Z" fill="black"/>
<path d="M113.258 16.0249H106.528V41.4934H113.258V16.0249Z" fill="black"/>
<path d="M109.889 4.33472C107.177 4.33472 104.974 6.54972 104.974 9.27649C104.974 12.0033 107.177 14.2183 109.889 14.2183C112.602 14.2183 114.806 12.0033 114.806 9.27649C114.806 6.54972 112.602 4.33472 109.889 4.33472Z" fill="black"/>
<path d="M65.4938 9.27734L53.1318 41.4948H60.4424L62.6698 35.3856H74.9363L77.1557 41.4948H84.4663L72.1123 9.27734H65.4938ZM72.6055 28.9884H65.0086L68.811 18.5771L72.6055 28.9884Z" fill="black"/>
<path d="M31.3429 28.39C31.3429 19.8094 24.4394 12.855 15.9215 12.855C7.40362 12.855 0.5 19.8094 0.5 28.39C0.5 36.9706 7.40362 43.9251 15.9215 43.9251C24.4315 43.9251 31.3429 36.9706 31.3429 28.39Z" fill="#00E066"/>
<path d="M51.0261 11.7491C51.0261 5.3866 45.909 0.231934 39.5931 0.231934C33.2772 0.231934 28.1602 5.3866 28.1602 11.7491C28.1602 18.1115 33.285 23.2661 39.5931 23.2661C45.909 23.2661 51.0261 18.1115 51.0261 11.7491Z" fill="#00AAFF"/>
<path d="M49.4449 33.4722C49.4449 28.8307 45.7149 25.0732 41.1072 25.0732C36.4995 25.0732 32.7695 28.8307 32.7695 33.4722C32.7695 38.1138 36.4995 41.8713 41.1072 41.8713C45.707 41.8791 49.4449 38.1138 49.4449 33.4722Z" fill="#FF4053"/>
<path d="M21.8621 1.70044C19.0255 1.70044 16.7295 4.01333 16.7295 6.87089C16.7295 9.72845 19.0255 12.0413 21.8621 12.0413C24.6988 12.0413 26.9948 9.72845 26.9948 6.87089C26.9948 4.01333 24.6988 1.70044 21.8621 1.70044Z" fill="#965EEB"/>
</g>
<defs>
<clipPath id="clip0_1441_61">
<rect width="160" height="44" fill="white" transform="translate(0.5 0.5)"/>
</clipPath>
</defs>
</svg>
