<svg width="48" height="48" viewBox="0 0 48 48" fill="none" xmlns="http://www.w3.org/2000/svg">
<g clip-path="url(#clip0_1624_1291)">
<path fill-rule="evenodd" clip-rule="evenodd" d="M24 0C10.7452 0 0 10.7452 0 24C0 37.2547 10.7452 48 24 48C37.2547 48 48 37.2547 48 24C48 10.7452 37.2547 0 24 0ZM24.6288 17.4454C22.2489 18.4263 17.4924 20.4567 10.3594 23.5364C9.63595 24.012 9.2466 24.468 9.19138 24.9046C9.08532 25.7429 9.65095 25.9754 11.1833 26.4689C12.4326 26.8714 14.1131 27.3422 14.9868 27.361C15.7793 27.378 16.6638 27.0542 17.6403 26.3897C24.3048 21.9314 27.7452 19.678 27.9612 19.6294C28.1134 19.5951 28.3246 19.552 28.4676 19.678C28.6109 19.804 28.8182 20.4442 28.8031 20.5082C28.7093 20.9044 24.9127 24.4531 23.0331 26.2102C22.4836 26.7238 22.098 27.0842 22.0165 27.168C21.8688 27.3202 21.7219 27.4651 21.5802 27.6053C20.4 28.771 19.5808 29.58 21.7375 30.9886C22.7938 31.6783 23.5184 32.1158 24.2546 32.5603C24.9756 32.9954 25.7076 33.4373 26.773 34.1294C26.922 34.2262 27.0674 34.3224 27.2102 34.4167C28.3858 35.1938 29.3772 35.8493 30.6442 35.7336C31.2979 35.6741 31.9783 35.285 32.3213 33.468C33.1318 29.1737 34.7251 19.8692 35.0935 16.035C35.1257 15.6991 35.0851 15.2692 35.0525 15.0805C35.0198 14.8918 34.9517 14.6229 34.7042 14.4238C34.4112 14.1881 33.9586 14.1384 33.756 14.1419C32.8358 14.158 31.4239 14.6445 24.6288 17.4454Z" fill="#4450F8"/>
</g>
<defs>
<clipPath id="clip0_1624_1291">
<rect width="48" height="48" fill="white"/>
</clipPath>
</defs>
</svg>
