<svg width="44" height="45" viewBox="0 0 44 45" fill="none" xmlns="http://www.w3.org/2000/svg">
<path d="M9.52489 21.5791C10.1674 20.7443 10.9274 19.976 11.5715 19.1844C12.6769 17.8256 13.7426 16.4309 14.725 14.9803C16.0389 13.04 17.4727 11.3521 19.4608 10.0686C21.6733 8.64021 24.2611 7.76447 26.8931 7.60862C26.9171 7.60714 26.9411 7.60575 26.9651 7.60453C29.0572 7.49137 31.1972 7.90065 33.0272 8.94391C35.156 10.1575 36.7177 12.0908 37.5947 14.3629C37.8187 14.9433 38.0123 15.5352 38.1893 16.1315C40.0522 22.4063 32.5155 26.3034 29.2135 27.4863C25.9115 28.6693 18.6049 29.4049 16.9769 30.3532C15.2136 31.3802 12.8801 31.5993 11.0301 30.6684C8.82136 29.557 7.83422 26.8265 8.16904 24.4713C8.32546 23.3709 8.8627 22.4396 9.52489 21.5791Z" fill="white" fill-opacity="0.2"/>
<path d="M1.83325 33.5C1.83325 29.375 7.33325 29.375 10.0833 26.625C11.4583 25.25 7.33325 25.25 7.33325 18.375C7.33325 13.7921 9.16613 11.5 12.8333 11.5C16.5004 11.5 18.3333 13.7921 18.3333 18.375C18.3333 25.25 14.2083 25.25 15.5833 26.625C18.3333 29.375 23.8333 29.375 23.8333 33.5" stroke="white" stroke-linecap="round"/>
<path d="M21.9902 30.279C23.0297 29.5626 24.3792 29.0468 25.6704 28.4249C26.68 27.9387 27.654 27.3876 28.4166 26.625C29.7916 25.25 25.6666 25.25 25.6666 18.375C25.6666 13.7921 27.4994 11.5 31.1666 11.5C34.8337 11.5 36.6666 13.7921 36.6666 18.375C36.6666 25.25 32.5416 25.25 33.9166 26.625C36.6666 29.375 42.1666 29.375 42.1666 33.5" stroke="white" stroke-linecap="round"/>
</svg>
