<svg width="36" height="36" viewBox="0 0 36 36" fill="none" xmlns="http://www.w3.org/2000/svg">
<path d="M17.5025 0.914168C17.5632 0.314645 18.4368 0.314644 18.4975 0.914168L19.9812 15.5717C20.0051 15.808 20.192 15.9949 20.4283 16.0188L35.0858 17.5025C35.6854 17.5632 35.6854 18.4368 35.0858 18.4975L20.4283 19.9812C20.192 20.0051 20.0051 20.192 19.9812 20.4283L18.4975 35.0858C18.4368 35.6854 17.5632 35.6854 17.5025 35.0858L16.0188 20.4283C15.9949 20.192 15.808 20.0051 15.5717 19.9812L0.914168 18.4975C0.314645 18.4368 0.314644 17.5632 0.914168 17.5025L15.5717 16.0188C15.808 15.9949 15.9949 15.808 16.0188 15.5717L17.5025 0.914168Z" fill="#4450F8"/>
</svg>
