<svg width="273" height="45" viewBox="0 0 273 45" fill="none" xmlns="http://www.w3.org/2000/svg">
<g clip-path="url(#clip0_1441_82)">
<path d="M122.076 12.9899L127.763 8.75684H108.724V34.1141H127.763V29.8809H114.164V23.4067H125.785V19.1736H114.164V12.9899H122.076Z" fill="#21A038"/>
<path d="M94.3415 18.6341H87.7479V12.9899H98.2978L103.985 8.75684H82.3081V34.1141H93.6409C99.9874 34.1141 103.655 31.2089 103.655 26.1458C103.655 21.2901 100.358 18.6341 94.3415 18.6341ZM93.4349 29.8809H87.7479V22.8672H93.4349C96.8967 22.8672 98.5039 24.0292 98.5039 26.3948C98.5039 28.7604 96.773 29.8809 93.4349 29.8809Z" fill="#21A038"/>
<path d="M143.176 8.75684H132.833V34.1141H138.272V26.9342H143.217C149.811 26.9342 153.932 23.4482 153.932 17.8456C153.932 12.2429 149.811 8.75684 143.176 8.75684ZM143.053 22.7012H138.231V12.9899H143.053C146.556 12.9899 148.451 14.733 148.451 17.8456C148.451 20.9581 146.556 22.7012 143.053 22.7012Z" fill="#21A038"/>
<path d="M72.995 28.6357C71.5528 29.4243 69.9456 29.8393 68.2971 29.8393C63.3931 29.8393 59.8489 26.3117 59.8489 21.4561C59.8489 16.6005 63.3931 13.0729 68.2971 13.0729C70.0691 13.0314 71.8 13.6124 73.2424 14.65L77.1574 11.7449L76.91 11.4959C74.6436 9.46232 71.5939 8.4248 68.1324 8.4248C64.3821 8.4248 60.9616 9.71133 58.4891 12.0354C56.0163 14.4425 54.6152 17.804 54.6978 21.2901C54.6565 24.8177 56.0163 28.2209 58.4891 30.7107C61.0853 33.1595 64.5469 34.5289 68.091 34.446C72.006 34.446 75.4265 33.0764 77.7343 30.5863L74.2314 27.9718L72.995 28.6357Z" fill="#21A038"/>
<path d="M219.333 8.79834V34.1554H224.773V23.7802H236.353V34.1554H241.792V8.79834H236.353V19.2151H224.773V8.79834H219.333ZM209.978 34.1554H215.706L205.074 8.79834H199.552L188.713 34.1554H194.195L196.379 29.0508H207.918L209.978 34.1554ZM198.027 24.8177L202.231 14.65L206.187 24.8177H198.027ZM253.991 23.9047H257.37L265.694 34.1141H272.7L261.573 20.9996L271.299 8.75684H265.077L256.999 19.6301H253.991V8.75684H248.551V34.1141H253.991V23.9047ZM170.746 18.6756V13.0314H184.963V8.79834H165.306V34.1554H176.639C182.985 34.1554 186.653 31.2505 186.653 26.1873C186.653 21.3316 183.356 18.6756 177.34 18.6756H170.746ZM170.746 29.9225V22.9087H176.433C179.894 22.9087 181.502 24.0707 181.502 26.4363C181.502 28.802 179.812 29.9637 176.433 29.9637H170.746V29.9225Z" fill="#21A038"/>
<path d="M37.6773 8.59082C38.6663 9.87737 39.4906 11.2884 40.1912 12.7824L21.152 26.9342L13.1572 21.8712V15.812L21.1108 20.8336L37.6773 8.59082Z" fill="#21A038"/>
<path d="M5.0389 21.456C5.0389 21.1655 5.0389 20.9165 5.08011 20.626L0.258495 20.377C0.258495 20.709 0.217285 21.0825 0.217285 21.4145C0.217285 27.2247 2.56628 32.4952 6.35761 36.3134L9.77807 32.8687C6.85215 29.9636 5.0389 25.9381 5.0389 21.456Z" fill="url(#paint0_linear_1441_82)"/>
<path d="M21.1112 5.27066C21.3997 5.27066 21.647 5.27066 21.9354 5.31217L22.1827 0.45654C21.853 0.45654 21.4821 0.415039 21.1524 0.415039C15.383 0.415039 10.1493 2.7806 6.35791 6.59869L9.77837 10.0433C12.6631 7.09671 16.7017 5.27066 21.1112 5.27066Z" fill="url(#paint1_linear_1441_82)"/>
<path d="M21.111 37.6415C20.8225 37.6415 20.5753 37.6415 20.2868 37.6L20.0396 42.4557C20.3692 42.4557 20.7401 42.497 21.0698 42.497C26.8391 42.497 32.0729 40.1316 35.8642 36.3135L32.4437 32.8689C29.5591 35.8569 25.5617 37.6415 21.111 37.6415Z" fill="url(#paint2_linear_1441_82)"/>
<path d="M30.1771 8.09274L34.2569 5.06316C30.6716 2.15808 26.0973 0.373535 21.1108 0.373535V5.22915C24.4901 5.27066 27.6222 6.30817 30.1771 8.09274Z" fill="url(#paint3_linear_1441_82)"/>
<path d="M42.046 21.456C42.046 20.1695 41.9223 18.9245 41.7162 17.6794L37.2243 21.041C37.2243 21.1655 37.2243 21.3315 37.2243 21.456C37.2243 26.2286 35.1637 30.5034 31.9082 33.4498L35.1637 37.0604C39.3671 33.2423 42.046 27.6398 42.046 21.456Z" fill="#21A038"/>
<path d="M21.1108 37.6415C16.3716 37.6415 12.127 35.5665 9.20104 32.2878L5.61572 35.5665C9.44829 39.841 14.9705 42.497 21.1108 42.497V37.6415Z" fill="url(#paint4_linear_1441_82)"/>
<path d="M10.355 9.46218L7.09943 5.85156C2.85476 9.71116 0.217285 15.2723 0.217285 21.456H5.0389C5.0389 16.7248 7.09943 12.4088 10.355 9.46218Z" fill="url(#paint5_linear_1441_82)"/>
</g>
<defs>
<linearGradient id="paint0_linear_1441_82" x1="5.84311" y1="35.7225" x2="0.925349" y2="21.3898" gradientUnits="userSpaceOnUse">
<stop offset="0.1444" stop-color="#F2E913"/>
<stop offset="0.3037" stop-color="#E7E518"/>
<stop offset="0.5823" stop-color="#CADB26"/>
<stop offset="0.891" stop-color="#A3CD39"/>
</linearGradient>
<linearGradient id="paint1_linear_1441_82" x1="7.7323" y1="6.05078" x2="20.2288" y2="1.24919" gradientUnits="userSpaceOnUse">
<stop offset="0.0592" stop-color="#0FA8E0"/>
<stop offset="0.5385" stop-color="#0099F9"/>
<stop offset="0.9234" stop-color="#0291EB"/>
</linearGradient>
<linearGradient id="paint2_linear_1441_82" x1="19.7564" y1="38.3676" x2="34.6555" y2="34.9726" gradientUnits="userSpaceOnUse">
<stop offset="0.1226" stop-color="#A3CD39"/>
<stop offset="0.2846" stop-color="#86C339"/>
<stop offset="0.8693" stop-color="#21A038"/>
</linearGradient>
<linearGradient id="paint3_linear_1441_82" x1="20.1202" y1="3.46621" x2="32.5071" y2="7.3198" gradientUnits="userSpaceOnUse">
<stop offset="0.0566" stop-color="#0291EB"/>
<stop offset="0.79" stop-color="#0C8ACB"/>
</linearGradient>
<linearGradient id="paint4_linear_1441_82" x1="6.84168" y1="36.3357" x2="20.1461" y2="41.348" gradientUnits="userSpaceOnUse">
<stop offset="0.1324" stop-color="#F2E913"/>
<stop offset="0.2977" stop-color="#EBE716"/>
<stop offset="0.5306" stop-color="#D9E01F"/>
<stop offset="0.8023" stop-color="#BBD62D"/>
<stop offset="0.9829" stop-color="#A3CD39"/>
</linearGradient>
<linearGradient id="paint5_linear_1441_82" x1="3.91171" y1="22.0425" x2="9.22841" y2="8.09732" gradientUnits="userSpaceOnUse">
<stop offset="0.0698" stop-color="#A3CD39"/>
<stop offset="0.2599" stop-color="#81C55F"/>
<stop offset="0.9216" stop-color="#0FA8E0"/>
</linearGradient>
<clipPath id="clip0_1441_82">
<rect width="272.812" height="45" fill="white" transform="translate(0.09375)"/>
</clipPath>
</defs>
</svg>
