<svg width="275" height="45" viewBox="0 0 275 45" fill="none" xmlns="http://www.w3.org/2000/svg">
<g clip-path="url(#clip0_1_410)">
<path d="M110.95 10.6842H86.2986V16.1715H110.95V10.6842Z" fill="black"/>
<path d="M110.95 28.8284H86.2986V34.3557H110.95V28.8284Z" fill="black"/>
<path d="M189.394 10.6842H181.869L170.479 18.5347V10.6842H164.742V22.4999L156.428 28.2676C156.428 28.2676 153.975 30.1501 151.19 30.1902C146.825 30.1902 143.25 26.7456 143.25 22.54C143.25 18.3344 146.825 14.8898 151.19 14.8898C153.435 14.8898 155.472 15.811 156.927 17.2529L161.042 14.4092C158.673 11.7256 155.139 10.0433 151.19 10.0433C144.04 10.0433 138.22 15.6508 138.22 22.54C138.22 22.7403 138.22 22.9806 138.22 23.1809C138.22 23.1809 138.22 23.1809 138.22 23.2209C138.22 23.301 138.22 23.3811 138.22 23.5013C138.22 23.5413 138.22 23.5814 138.22 23.6214C138.22 23.6615 138.22 23.7015 138.22 23.7416C138.22 23.7817 131.652 28.3077 131.652 28.3077C131.652 28.3077 129.199 30.2303 126.414 30.2303C122.049 30.2303 118.474 26.7857 118.474 22.5801C118.474 18.3744 122.049 14.9299 126.414 14.9299C128.659 14.9299 130.696 15.8511 132.151 17.293L136.266 14.4492C133.897 11.7656 130.363 10.0834 126.414 10.0834C119.264 10.0834 113.444 15.6909 113.444 22.5801C113.444 29.4692 119.264 35.0767 126.414 35.0767C129.282 35.0767 131.985 34.1555 134.105 32.6335L139.717 28.548L139.8 28.7082C141.13 30.9512 143.167 32.7937 145.62 33.9152C145.994 34.0754 146.368 34.2356 146.784 34.3558C146.784 34.3558 146.825 34.3558 146.825 34.3958C146.95 34.4359 147.075 34.4759 147.199 34.516C147.199 34.516 147.199 34.516 147.241 34.516C147.366 34.556 147.49 34.5961 147.615 34.6361H147.657C147.781 34.6762 147.865 34.6762 147.989 34.7162C148.031 34.7162 148.072 34.7162 148.072 34.7563C148.197 34.7963 148.28 34.7963 148.405 34.8364H148.447C148.571 34.8764 148.696 34.8764 148.821 34.9165C148.862 34.9165 148.904 34.9165 148.904 34.9165C148.987 34.9165 149.112 34.9566 149.195 34.9566H149.32C149.444 34.9566 149.569 34.9966 149.652 34.9966H149.694C149.818 34.9966 149.943 35.0367 150.109 35.0367C150.151 35.0367 150.192 35.0367 150.234 35.0367C150.317 35.0367 150.442 35.0367 150.525 35.0367C150.567 35.0367 150.608 35.0367 150.65 35.0367C150.774 35.0367 150.899 35.0367 151.065 35.0367C153.934 35.0367 156.594 34.1154 158.756 32.5934L164.742 28.3077V34.3157H170.479V26.5053L181.786 34.3157H189.394V33.7549L173.139 22.4999L189.394 11.285V10.6842Z" fill="black"/>
</g>
<defs>
<clipPath id="clip0_1_410">
<rect width="103.788" height="25" fill="white" transform="translate(85.606 10)"/>
</clipPath>
</defs>
</svg>
