<svg width="264" height="77" viewBox="0 0 264 77" fill="none" xmlns="http://www.w3.org/2000/svg">
<g filter="url(#filter0_d_1_17)">
<rect x="0.560059" y="9.58301" width="251" height="57" rx="10" transform="rotate(-2 0.560059 9.58301)" fill="#FF8B80" shape-rendering="crispEdges"/>
<g filter="url(#filter1_d_1_17)">
<path d="M30.5994 45.5565L26.9688 45.6833L26.4764 31.5825L21.8269 31.7449L21.7214 28.7233L34.651 28.2718L34.7565 31.2934L30.107 31.4558L30.5994 45.5565ZM42.7554 27.9888C44.965 27.9116 46.594 28.3316 47.6422 29.2487C48.6902 30.158 49.2433 31.4441 49.3013 33.1072C49.3275 33.8567 49.2394 34.579 49.037 35.274C48.8343 35.9612 48.4845 36.5792 47.9877 37.1281C47.4988 37.6768 46.8342 38.1221 45.9941 38.4642C45.1537 38.7984 44.1089 38.9873 42.8596 39.0309L41.302 39.0853L41.5146 45.1754L37.884 45.3021L37.2861 28.1798L42.7554 27.9888ZM42.6719 30.9701L41.0206 31.0277L41.1981 36.1106L42.3927 36.0689C43.072 36.0451 43.6583 35.9348 44.1517 35.7377C44.6452 35.5407 45.0218 35.2461 45.2817 34.854C45.5416 34.4619 45.6611 33.9652 45.6401 33.364C45.6107 32.5208 45.3546 31.9044 44.872 31.5147C44.3891 31.1173 43.6557 30.9357 42.6719 30.9701ZM66.0967 27.1737L61.2142 39.4688C60.7761 40.5785 60.3015 41.537 59.7903 42.3444C59.2788 43.144 58.6166 43.7691 57.8037 44.2196C56.9905 44.6623 55.9125 44.9071 54.5696 44.954C54.1479 44.9687 53.6901 44.9534 53.196 44.9081C52.7022 44.8707 52.2425 44.8007 51.8168 44.6983L51.708 41.5831C52.1036 41.7178 52.529 41.8124 52.9843 41.8668C53.4471 41.9132 53.8815 41.9293 54.2876 41.9151C54.8185 41.8966 55.2448 41.7918 55.5664 41.6008C55.8881 41.4097 56.1412 41.1586 56.3257 40.8472C56.5103 40.5359 56.6624 40.1906 56.7821 39.8111L50.4265 27.7209L54.268 27.5868L57.7241 34.8886C57.7998 35.0423 57.897 35.2499 58.0156 35.5116C58.1417 35.7651 58.2642 36.0266 58.383 36.2961C58.5094 36.5575 58.6074 36.7886 58.6769 36.9894L58.8057 36.9849C58.8614 36.7875 58.9352 36.5504 59.0271 36.2736C59.1266 35.9887 59.2299 35.6998 59.3369 35.4068C59.4437 35.106 59.5398 34.8369 59.6253 34.5994L62.349 27.3046L66.0967 27.1737ZM81.6614 26.6302L82.1538 40.7309L84.4376 40.6512L84.7173 48.6619L81.2156 48.7842L81.0413 43.7951L70.3135 44.1697L70.4877 49.1588L66.986 49.2811L66.7062 41.2704L68.0296 41.2242C68.4436 40.3185 68.8402 39.3627 69.2193 38.3567C69.5985 37.3506 69.9478 36.2714 70.2671 35.1189C70.5865 33.9664 70.8673 32.7176 71.1096 31.3724C71.3518 30.0272 71.543 28.5626 71.6831 26.9786L81.6614 26.6302ZM78.148 29.7781L74.6697 29.8996C74.5815 30.7313 74.4522 31.6192 74.2819 32.5632C74.1117 33.5072 73.903 34.4721 73.656 35.4579C73.4166 36.4356 73.1416 37.4028 72.831 38.3595C72.5283 39.316 72.2005 40.2264 71.8476 41.0908L78.5349 40.8573L78.148 29.7781ZM102.431 34.453C102.478 35.7725 102.356 36.9806 102.066 38.0774C101.775 39.1663 101.308 40.1129 100.664 40.9171C100.027 41.721 99.2051 42.3517 98.1971 42.809C97.1887 43.2585 95.9857 43.5077 94.5881 43.5565C93.1905 43.6053 91.9731 43.4407 90.9359 43.0626C89.8983 42.6767 89.0302 42.1051 88.3315 41.3477C87.6405 40.5901 87.1122 39.6744 86.7463 38.6006C86.3805 37.5268 86.1744 36.3262 86.1281 34.9989C86.0662 33.2265 86.3012 31.6744 86.8332 30.3425C87.3727 29.0026 88.2349 27.9484 89.4197 27.18C90.6045 26.4117 92.13 25.9949 93.996 25.9297C95.8543 25.8648 97.3934 26.1746 98.6133 26.859C99.8411 27.5431 100.767 28.5349 101.391 29.8342C102.022 31.1332 102.369 32.6729 102.431 34.453ZM89.9352 34.8894C89.9769 36.084 90.1612 37.1094 90.4882 37.9657C90.8227 38.8139 91.3182 39.4611 91.9748 39.9072C92.6311 40.3455 93.4668 40.5469 94.4818 40.5115C95.5124 40.4755 96.3398 40.216 96.964 39.733C97.5878 39.2422 98.0292 38.5623 98.2881 37.6933C98.5545 36.8163 98.6669 35.7805 98.6252 34.5859C98.5625 32.7902 98.1774 31.3887 97.4699 30.3815C96.7625 29.3743 95.6397 28.8976 94.1016 28.9513C93.0787 28.987 92.2515 29.2504 91.6198 29.7415C90.9957 30.2245 90.5465 30.9047 90.2722 31.782C90.0055 32.6512 89.8932 33.687 89.9352 34.8894ZM119.431 25.3112L114.549 37.6063C114.111 38.716 113.636 39.6745 113.125 40.4819C112.613 41.2815 111.951 41.9066 111.138 42.3571C110.325 42.7998 109.247 43.0446 107.904 43.0915C107.483 43.1062 107.025 43.0909 106.531 43.0457C106.037 43.0082 105.577 42.9382 105.151 42.8359L105.043 39.7206C105.438 39.8553 105.864 39.9499 106.319 40.0043C106.782 40.0507 107.216 40.0668 107.622 40.0526C108.153 40.0341 108.579 39.9293 108.901 39.7383C109.223 39.5472 109.476 39.2961 109.66 38.9847C109.845 38.6734 109.997 38.3281 110.117 37.9487L103.761 25.8584L107.603 25.7243L111.059 33.0261C111.135 33.1798 111.232 33.3874 111.35 33.6491C111.476 33.9026 111.599 34.1642 111.718 34.4336C111.844 34.695 111.942 34.9261 112.012 35.1269L112.14 35.1224C112.196 34.925 112.27 34.6879 112.362 34.4111C112.461 34.1262 112.565 33.8373 112.672 33.5443C112.778 33.2435 112.874 32.9744 112.96 32.7369L115.684 25.4421L119.431 25.3112ZM128.956 27.7576C128.261 27.7819 127.649 27.9401 127.12 28.2321C126.598 28.5161 126.163 28.9183 125.814 29.4386C125.472 29.9587 125.22 30.5811 125.058 31.306C124.896 32.0308 124.83 32.8422 124.862 33.7401C124.904 34.9503 125.088 35.9796 125.415 36.8281C125.749 37.6685 126.241 38.3041 126.889 38.7349C127.537 39.1579 128.36 39.3519 129.36 39.317C130.055 39.2927 130.747 39.1904 131.436 39.0099C132.134 38.8293 132.887 38.5802 133.697 38.2626L133.803 41.3077C133.057 41.6464 132.319 41.895 131.589 42.0533C130.86 42.2195 130.039 42.3185 129.126 42.3504C127.361 42.4121 125.896 42.0997 124.731 41.4134C123.573 40.719 122.698 39.7255 122.106 38.4329C121.513 37.1325 121.186 35.6039 121.125 33.8471C121.08 32.5511 121.214 31.3581 121.528 30.2684C121.841 29.1787 122.324 28.2276 122.976 27.4153C123.627 26.603 124.446 25.9647 125.43 25.5004C126.414 25.0361 127.555 24.7813 128.851 24.736C129.702 24.7063 130.557 24.7859 131.415 24.9748C132.281 25.1556 133.111 25.4198 133.905 25.7673L132.837 28.7595C132.186 28.4774 131.533 28.2344 130.877 28.0306C130.221 27.8268 129.581 27.7358 128.956 27.7576ZM144.085 41.5935L140.454 41.7203L139.962 27.6195L135.312 27.7819L135.207 24.7603L148.137 24.3088L148.242 27.3304L143.593 27.4927L144.085 41.5935ZM156.241 24.0258C158.451 23.9486 160.079 24.3686 161.128 25.2857C162.176 26.195 162.729 27.4811 162.787 29.1442C162.813 29.8937 162.725 30.616 162.522 31.311C162.32 31.9982 161.97 32.6162 161.473 33.1651C160.984 33.7138 160.32 34.1591 159.48 34.5012C158.639 34.8354 157.594 35.0243 156.345 35.0679L154.787 35.1223L155 41.2124L151.37 41.3391L150.772 24.2168L156.241 24.0258ZM156.157 27.0071L154.506 27.0647L154.684 32.1476L155.878 32.1059C156.557 32.0821 157.144 31.9718 157.637 31.7747C158.131 31.5777 158.507 31.2831 158.767 30.891C159.027 30.4989 159.147 30.0022 159.126 29.401C159.096 28.5578 158.84 27.9414 158.357 27.5517C157.875 27.1543 157.141 26.9727 156.157 27.0071ZM181.672 31.6859C181.718 33.0054 181.596 34.2135 181.306 35.3102C181.016 36.3991 180.549 37.3457 179.905 38.1499C179.268 38.9539 178.446 39.5845 177.438 40.0419C176.429 40.4914 175.226 40.7406 173.829 40.7894C172.431 40.8382 171.214 40.6735 170.177 40.2954C169.139 39.9095 168.271 39.3379 167.572 38.5806C166.881 37.823 166.353 36.9073 165.987 35.8335C165.621 34.7596 165.415 33.5591 165.369 32.2317C165.307 30.4594 165.542 28.9073 166.074 27.5754C166.613 26.2354 167.476 25.1813 168.66 24.4129C169.845 23.6445 171.371 23.2277 173.237 23.1626C175.095 23.0977 176.634 23.4074 177.854 24.0918C179.082 24.776 180.008 25.7677 180.631 27.067C181.263 28.3661 181.61 29.9057 181.672 31.6859ZM169.176 32.1223C169.218 33.3168 169.402 34.3423 169.729 35.1986C170.063 36.0468 170.559 36.694 171.216 37.1401C171.872 37.5784 172.708 37.7798 173.723 37.7443C174.753 37.7084 175.581 37.4489 176.205 36.9658C176.829 36.475 177.27 35.7951 177.529 34.9262C177.795 34.0492 177.908 33.0134 177.866 31.8188C177.803 30.023 177.418 28.6215 176.711 27.6144C176.003 26.6072 174.88 26.1305 173.342 26.1842C172.32 26.2199 171.492 26.4833 170.861 26.9744C170.236 27.4574 169.787 28.1376 169.513 29.0148C169.246 29.8841 169.134 30.9199 169.176 32.1223ZM184.923 23.0242L188.19 22.9101L188.479 31.1785C188.493 31.5845 188.501 32.0337 188.503 32.5261C188.512 33.0183 188.513 33.5029 188.506 33.98C188.507 34.449 188.506 34.8595 188.503 35.2114C188.499 35.5633 188.492 35.798 188.48 35.9157L188.55 35.9132L196.002 22.6373L200.347 22.4856L200.945 39.6079L197.712 39.7208L197.425 31.4993C197.41 31.062 197.401 30.5855 197.399 30.0696C197.396 29.5538 197.399 29.0534 197.405 28.5685C197.419 28.0833 197.432 27.6647 197.443 27.3125C197.454 26.9525 197.461 26.7138 197.465 26.5965L197.371 26.5997L189.889 39.994L185.521 40.1466L184.923 23.0242ZM212.516 39.2039L207.924 25.9146L207.819 25.9183C207.846 26.2379 207.886 26.7211 207.94 27.3681C208.001 28.0069 208.06 28.6889 208.117 29.4139C208.173 30.139 208.212 30.7943 208.232 31.3798L208.511 39.3437L205.266 39.457L204.668 22.3347L209.611 22.1621L214.12 35.1141L214.19 35.1117L218.031 21.868L222.974 21.6954L223.572 38.8178L220.187 38.936L219.904 30.8316C219.885 30.2928 219.871 29.6718 219.862 28.9686C219.861 28.2651 219.865 27.5966 219.874 26.963C219.883 26.3217 219.89 25.8407 219.894 25.5201L219.789 25.5237L215.842 39.0877L212.516 39.2039ZM230.412 32.8919L227.554 32.9917L226.557 21.5703L230.61 21.4288L230.412 32.8919ZM227.05 37.0195C227.024 36.2856 227.206 35.7633 227.593 35.4527C227.989 35.1419 228.472 34.9765 229.042 34.9566C229.596 34.9372 230.078 35.0689 230.486 35.3517C230.902 35.6342 231.123 36.1425 231.149 36.8764C231.174 37.5791 230.988 38.0937 230.593 38.4202C230.206 38.7464 229.735 38.9192 229.181 38.9385C228.611 38.9584 228.117 38.8193 227.701 38.5212C227.291 38.2228 227.075 37.7222 227.05 37.0195Z" fill="white"/>
</g>
<rect x="1.0772" y="10.0653" width="250" height="56" rx="9.5" transform="rotate(-2 1.0772 10.0653)" stroke="black" shape-rendering="crispEdges"/>
</g>
<defs>
<filter id="filter0_d_1_17" x="0.560059" y="0.823242" width="262.836" height="75.7251" filterUnits="userSpaceOnUse" color-interpolation-filters="sRGB">
<feFlood flood-opacity="0" result="BackgroundImageFix"/>
<feColorMatrix in="SourceAlpha" type="matrix" values="0 0 0 0 0 0 0 0 0 0 0 0 0 0 0 0 0 0 127 0" result="hardAlpha"/>
<feOffset dx="10" dy="10"/>
<feComposite in2="hardAlpha" operator="out"/>
<feColorMatrix type="matrix" values="0 0 0 0 0 0 0 0 0 0 0 0 0 0 0 0 0 0 1 0"/>
<feBlend mode="normal" in2="BackgroundImageFix" result="effect1_dropShadow_1_17"/>
<feBlend mode="normal" in="SourceGraphic" in2="effect1_dropShadow_1_17" result="shape"/>
</filter>
<filter id="filter1_d_1_17" x="21.7119" y="21.1594" width="210.67" height="30.6753" filterUnits="userSpaceOnUse" color-interpolation-filters="sRGB">
<feFlood flood-opacity="0" result="BackgroundImageFix"/>
<feColorMatrix in="SourceAlpha" type="matrix" values="0 0 0 0 0 0 0 0 0 0 0 0 0 0 0 0 0 0 127 0" result="hardAlpha"/>
<feOffset dx="1" dy="1"/>
<feComposite in2="hardAlpha" operator="out"/>
<feColorMatrix type="matrix" values="0 0 0 0 0 0 0 0 0 0 0 0 0 0 0 0 0 0 1 0"/>
<feBlend mode="normal" in2="BackgroundImageFix" result="effect1_dropShadow_1_17"/>
<feBlend mode="normal" in="SourceGraphic" in2="effect1_dropShadow_1_17" result="shape"/>
</filter>
</defs>
</svg>
