<svg width="318" height="83" viewBox="0 0 318 83" fill="none" xmlns="http://www.w3.org/2000/svg">
<g filter="url(#filter0_d_1_15)">
<rect x="0.619141" y="16.3252" width="305" height="57" rx="10" transform="rotate(-3 0.619141 16.3252)" fill="#00A0E3" shape-rendering="crispEdges"/>
<g filter="url(#filter1_d_1_15)">
<path d="M24.6814 52.1148L23.7848 35.0055L34.5981 34.4388L34.7551 37.4347L27.5696 37.8113L27.7567 41.3806L29.1844 41.3058C30.7916 41.2215 32.1217 41.3748 33.1749 41.7655C34.2358 42.1558 35.0327 42.7321 35.5655 43.4943C36.1057 44.2483 36.4022 45.1286 36.4549 46.135C36.5436 47.828 36.0469 49.1722 34.9647 50.1677C33.8903 51.1628 32.1243 51.7248 29.6668 51.8536L24.6814 52.1148ZM28.1535 48.9522L29.3706 48.8884C30.4706 48.8308 31.3274 48.6099 31.941 48.2257C32.5541 47.8337 32.8378 47.2008 32.792 46.327C32.7601 45.7184 32.5797 45.2624 32.2509 44.9589C31.9299 44.6549 31.4776 44.4596 30.8941 44.3728C30.3185 44.2856 29.6328 44.2629 28.837 44.3046L27.9125 44.3531L28.1535 48.9522ZM49.8422 50.7962L39.9886 51.3126L39.0919 34.2033L48.9456 33.6869L49.1013 36.6594L42.8755 36.9856L43.0724 40.7422L48.8652 40.4386L49.021 43.4111L43.2282 43.7147L43.4594 48.1266L49.6852 47.8003L49.8422 50.7962ZM59.9393 35.8919C59.2449 35.9283 58.6358 36.0971 58.1117 36.3984C57.5951 36.6914 57.1668 37.1011 56.8267 37.6275C56.4943 38.1534 56.2534 38.7801 56.1038 39.5077C55.9541 40.2353 55.9028 41.0477 55.9498 41.9449C56.0132 43.1542 56.2156 44.1801 56.5571 45.0228C56.9059 45.8573 57.4082 46.4842 58.0638 46.9036C58.7191 47.3151 59.546 47.4948 60.5446 47.4424C61.239 47.406 61.9293 47.2916 62.6155 47.0992C63.3094 46.9064 64.0585 46.6442 64.8625 46.3126L65.022 49.3553C64.2816 49.707 63.5481 49.9684 62.8217 50.1395C62.0957 50.3183 61.2763 50.4317 60.3635 50.4795C58.6003 50.5719 57.1301 50.2852 55.9531 49.6193C54.7834 48.9452 53.8911 47.9671 53.2763 46.6851C52.6611 45.3952 52.3075 43.8725 52.2155 42.1171C52.1476 40.822 52.261 39.627 52.5556 38.5319C52.8503 37.4369 53.3163 36.4776 53.9538 35.654C54.5913 34.8305 55.3981 34.178 56.3742 33.6965C57.3504 33.2151 58.486 32.9405 59.7811 32.8726C60.6315 32.828 61.4876 32.8927 62.3494 33.0666C63.2187 33.2322 64.0532 33.4819 64.853 33.8155L63.8373 36.8259C63.1816 36.5551 62.524 36.3236 61.8646 36.1313C61.2052 35.939 60.5634 35.8592 59.9393 35.8919ZM68.707 49.8075L67.8103 32.6982L81.3503 31.9886L82.247 49.0979L78.6308 49.2875L77.8924 35.1974L71.5964 35.5274L72.3348 49.6174L68.707 49.8075ZM100.105 48.162L96.4891 48.3515L95.7507 34.2615L91.5611 34.4811C91.506 35.2193 91.4464 36.0243 91.3826 36.8961C91.3188 37.7678 91.2514 38.6475 91.1806 39.5353C91.1098 40.423 91.0289 41.2682 90.938 42.071C90.8549 42.8733 90.7666 43.5781 90.6733 44.1854C90.5228 45.1946 90.2904 46.0595 89.9761 46.7801C89.6692 47.4925 89.225 48.0477 88.6435 48.4459C88.0698 48.8436 87.3031 49.0677 86.3435 49.118C86.0236 49.1347 85.7142 49.1275 85.4153 49.0962C85.1242 49.0645 84.8517 49.0162 84.598 48.9513L84.4422 45.9788C84.6487 46.0384 84.8546 46.0863 85.0599 46.1224C85.2648 46.1508 85.4882 46.1587 85.7301 46.146C86.0421 46.1296 86.2943 46.0147 86.4865 45.8012C86.6861 45.5795 86.8547 45.2148 86.9924 44.7069C87.1297 44.1912 87.2569 43.4843 87.3741 42.5863C87.4239 42.1925 87.4887 41.6376 87.5685 40.9215C87.6479 40.1976 87.7366 39.352 87.8346 38.3846C87.9321 37.4094 88.029 36.3482 88.1254 35.2009C88.2295 34.0533 88.3234 32.8592 88.407 31.6188L99.2086 31.0527L100.105 48.162ZM114.897 47.3868L113.444 43.3793L107.206 43.7062L106.179 47.8437L102.27 48.0486L107.409 30.5526L111.844 30.3201L118.806 47.182L114.897 47.3868ZM112.418 40.382L110.969 36.4681C110.877 36.2069 110.754 35.873 110.6 35.4665C110.453 35.0517 110.302 34.6333 110.147 34.2111C109.999 33.7808 109.878 33.4077 109.783 33.0919C109.722 33.4159 109.633 33.8195 109.518 34.3028C109.41 34.7778 109.304 35.2293 109.202 35.6571C109.099 36.085 109.025 36.39 108.98 36.5723L107.959 40.6156L112.418 40.382ZM127.571 46.7226L123.944 46.9127L123.205 32.8227L118.559 33.0662L118.401 30.0469L131.321 29.3698L131.479 32.3891L126.833 32.6326L127.571 46.7226ZM148.87 45.6064L145.254 45.7959L144.867 38.4115L138.091 38.7666L138.478 46.151L134.851 46.3411L133.954 29.2318L137.582 29.0417L137.933 35.7473L144.709 35.3922L144.358 28.6865L147.974 28.497L148.87 45.6064ZM168.28 35.9875C168.349 37.306 168.249 38.5161 167.978 39.6177C167.706 40.7115 167.256 41.6661 166.626 42.4814C166.003 43.2964 165.192 43.9413 164.192 44.4161C163.192 44.8832 161.994 45.1533 160.597 45.2265C159.201 45.2997 157.98 45.1563 156.937 44.7964C155.893 44.4286 155.015 43.8723 154.303 43.1272C153.599 42.3818 153.054 41.4755 152.67 40.4082C152.285 39.3409 152.058 38.1441 151.989 36.8178C151.896 35.0468 152.104 33.4908 152.613 32.1499C153.129 30.8007 153.972 29.7317 155.144 28.9427C156.315 28.1538 157.833 27.7104 159.697 27.6127C161.554 27.5154 163.098 27.7983 164.33 28.4613C165.57 29.1239 166.513 30.0993 167.159 31.3875C167.813 32.6754 168.187 34.2087 168.28 35.9875ZM155.794 36.6419C155.856 37.8356 156.058 38.8576 156.4 39.7081C156.749 40.5504 157.256 41.1888 157.92 41.6234C158.584 42.0501 159.423 42.2369 160.438 42.1838C161.467 42.1298 162.29 41.8559 162.906 41.3621C163.521 40.8604 163.95 40.173 164.194 39.2996C164.445 38.4181 164.539 37.3805 164.477 36.1868C164.383 34.3924 163.973 32.9979 163.248 32.0032C162.524 31.0085 161.393 30.5515 159.856 30.632C158.834 30.6856 158.011 30.9634 157.388 31.4654C156.772 31.9593 156.335 32.6471 156.076 33.5291C155.825 34.4028 155.731 35.4404 155.794 36.6419ZM193.581 34.6615C193.651 35.98 193.55 37.1901 193.279 38.2917C193.008 39.3855 192.557 40.3401 191.927 41.1555C191.305 41.9704 190.494 42.6153 189.494 43.0901C188.493 43.5572 187.295 43.8273 185.898 43.9005C184.502 43.9737 183.282 43.8303 182.238 43.4704C181.194 43.1027 180.316 42.5463 179.604 41.8013C178.9 41.0558 178.356 40.1495 177.971 39.0822C177.587 38.0149 177.36 36.8181 177.29 35.4918C177.197 33.7208 177.405 32.1649 177.914 30.8239C178.43 29.4747 179.274 28.4057 180.445 27.6167C181.616 26.8278 183.134 26.3845 184.999 26.2867C186.855 26.1894 188.4 26.4723 189.631 27.1353C190.871 27.7979 191.814 28.7733 192.46 30.0616C193.115 31.3494 193.488 32.8827 193.581 34.6615ZM181.095 35.3159C181.157 36.5096 181.359 37.5317 181.701 38.3821C182.051 39.2244 182.557 39.8628 183.222 40.2974C183.886 40.7242 184.725 40.911 185.739 40.8578C186.769 40.8038 187.591 40.5299 188.207 40.0361C188.822 39.5345 189.252 38.847 189.495 37.9737C189.746 37.0921 189.841 36.0545 189.778 34.8608C189.684 33.0664 189.275 31.6719 188.55 30.6772C187.825 29.6825 186.694 29.2255 185.157 29.306C184.135 29.3596 183.312 29.6374 182.689 30.1394C182.074 30.6333 181.636 31.3212 181.378 32.2031C181.126 33.0768 181.032 34.1144 181.095 35.3159ZM197.577 43.0538L196.68 25.9444L207.494 25.3777L207.651 28.3736L200.465 28.7502L200.652 32.3195L202.08 32.2447C203.687 32.1605 205.017 32.3137 206.07 32.7044C207.131 33.0948 207.928 33.671 208.461 34.4333C209.001 35.1873 209.298 36.0675 209.35 37.0739C209.439 38.7669 208.942 40.1112 207.86 41.1067C206.786 42.1017 205.02 42.6637 202.562 42.7925L197.577 43.0538ZM201.049 39.8911L202.266 39.8274C203.366 39.7697 204.223 39.5488 204.836 39.1646C205.45 38.7726 205.733 38.1397 205.688 37.2659C205.656 36.6573 205.475 36.2013 205.146 35.8978C204.825 35.5939 204.373 35.3985 203.79 35.3117C203.214 35.2246 202.528 35.2018 201.733 35.2435L200.808 35.292L201.049 39.8911ZM225.726 24.4222L221.059 36.8006C220.641 37.9178 220.183 38.8845 219.686 39.7007C219.188 40.5091 218.537 41.1456 217.732 41.6102C216.927 42.0671 215.853 42.3306 214.511 42.401C214.09 42.423 213.632 42.4158 213.137 42.3791C212.643 42.3502 212.182 42.2883 211.754 42.1934L211.591 39.0805C211.989 39.2083 212.416 39.2954 212.872 39.3419C213.336 39.3802 213.771 39.3887 214.176 39.3675C214.707 39.3397 215.131 39.2275 215.45 39.0308C215.768 38.8342 216.016 38.5787 216.196 38.2642C216.375 37.9497 216.521 37.6017 216.634 37.2203L210.068 25.2428L213.907 25.0416L217.49 32.282C217.568 32.4344 217.669 32.6403 217.792 32.8998C217.923 33.1512 218.05 33.4105 218.173 33.6778C218.304 33.937 218.406 34.1663 218.479 34.3659L218.608 34.3591C218.66 34.1608 218.73 33.9225 218.817 33.6441C218.911 33.3575 219.009 33.0668 219.111 32.772C219.213 32.4694 219.304 32.1986 219.386 31.9597L221.982 24.6184L225.726 24.4222ZM241.918 40.7299L238.291 40.92L237.944 34.308C236.956 34.704 236.049 35.0137 235.223 35.2368C234.398 35.46 233.56 35.5939 232.71 35.6385C231.103 35.7227 229.83 35.4021 228.892 34.6768C227.954 33.9436 227.448 32.8593 227.372 31.4238L227.002 24.3553L230.618 24.1658L230.935 30.2044C230.978 31.0314 231.202 31.6455 231.606 32.0468C232.01 32.4402 232.668 32.6131 233.581 32.5652C234.252 32.5301 234.92 32.4247 235.583 32.2491C236.246 32.0657 236.984 31.808 237.796 31.476L237.394 23.8107L241.022 23.6206L241.918 40.7299ZM245.34 23.3943L248.605 23.2232L249.038 31.4853C249.059 31.891 249.075 32.34 249.085 32.8323C249.103 33.3242 249.113 33.8087 249.115 34.2859C249.123 34.7548 249.129 35.1652 249.132 35.5171C249.135 35.869 249.132 36.1039 249.122 36.2217L249.192 36.2181L256.411 22.8141L260.753 22.5865L261.649 39.6959L258.419 39.8651L257.989 31.6499C257.966 31.213 257.949 30.7366 257.937 30.2209C257.926 29.7052 257.919 29.2048 257.917 28.7199C257.923 28.2345 257.929 27.8157 257.934 27.4634C257.938 27.1033 257.941 26.8645 257.943 26.7471L257.849 26.752L250.602 40.2748L246.237 40.5036L245.34 23.3943ZM273.211 39.0899L268.389 25.8828L268.283 25.8883C268.316 26.2074 268.364 26.6899 268.43 27.3358C268.502 27.9735 268.573 28.6543 268.642 29.3782C268.711 30.1022 268.761 30.7567 268.792 31.3418L269.209 39.2997L265.967 39.4696L265.071 22.3602L270.009 22.1014L274.744 34.9728L274.814 34.9691L278.424 21.6604L283.362 21.4016L284.259 38.511L280.877 38.6882L280.452 30.5899C280.424 30.0516 280.399 29.431 280.378 28.728C280.365 28.0246 280.357 27.3561 280.355 26.7225C280.353 26.0812 280.351 25.6001 280.35 25.2794L280.245 25.2849L276.535 38.9157L273.211 39.0899Z" fill="white"/>
</g>
<rect x="1.14462" y="16.7983" width="304" height="56" rx="9.5" transform="rotate(-3 1.14462 16.7983)" stroke="black" shape-rendering="crispEdges"/>
</g>
<defs>
<filter id="filter0_d_1_15" x="0.619141" y="0.362793" width="317.565" height="82.8843" filterUnits="userSpaceOnUse" color-interpolation-filters="sRGB">
<feFlood flood-opacity="0" result="BackgroundImageFix"/>
<feColorMatrix in="SourceAlpha" type="matrix" values="0 0 0 0 0 0 0 0 0 0 0 0 0 0 0 0 0 0 127 0" result="hardAlpha"/>
<feOffset dx="10" dy="10"/>
<feComposite in2="hardAlpha" operator="out"/>
<feColorMatrix type="matrix" values="0 0 0 0 0 0 0 0 0 0 0 0 0 0 0 0 0 0 1 0"/>
<feBlend mode="normal" in2="BackgroundImageFix" result="effect1_dropShadow_1_15"/>
<feBlend mode="normal" in="SourceGraphic" in2="effect1_dropShadow_1_15" result="shape"/>
</filter>
<filter id="filter1_d_1_15" x="23.7708" y="21.1326" width="261.5" height="32.2163" filterUnits="userSpaceOnUse" color-interpolation-filters="sRGB">
<feFlood flood-opacity="0" result="BackgroundImageFix"/>
<feColorMatrix in="SourceAlpha" type="matrix" values="0 0 0 0 0 0 0 0 0 0 0 0 0 0 0 0 0 0 127 0" result="hardAlpha"/>
<feOffset dx="1" dy="1"/>
<feComposite in2="hardAlpha" operator="out"/>
<feColorMatrix type="matrix" values="0 0 0 0 0 0 0 0 0 0 0 0 0 0 0 0 0 0 1 0"/>
<feBlend mode="normal" in2="BackgroundImageFix" result="effect1_dropShadow_1_15"/>
<feBlend mode="normal" in="SourceGraphic" in2="effect1_dropShadow_1_15" result="shape"/>
</filter>
</defs>
</svg>
