<svg width="44" height="44" viewBox="0 0 44 44" fill="none" xmlns="http://www.w3.org/2000/svg">
<path d="M8.78856 26.2101C9.43102 25.3753 10.1911 24.607 10.8352 23.8153C11.9406 22.4566 13.0063 21.0619 13.9886 19.6113C15.3026 17.671 16.7364 15.9831 18.7244 14.6996C20.937 13.2712 23.5247 12.3954 26.1567 12.2396C26.1808 12.2381 26.2048 12.2367 26.2288 12.2355C28.3209 12.1224 30.4609 12.5316 32.2908 13.5749C34.4197 14.7885 35.9814 16.7218 36.8583 18.9939C37.0823 19.5743 37.2759 20.1662 37.453 20.7625C39.3158 27.0373 31.7792 30.9343 28.4772 32.1173C25.1752 33.3002 17.8686 34.0359 16.2406 34.9841C14.4773 36.0112 12.1438 36.2303 10.2938 35.2994C8.08503 34.188 7.09789 31.4575 7.43271 29.1023C7.58913 28.0018 8.12637 27.0706 8.78856 26.2101Z" fill="white" fill-opacity="0.7"/>
<path fill-rule="evenodd" clip-rule="evenodd" d="M15.148 16.2716C14.8373 16.6341 14.6665 17.0958 14.6665 17.5732V35C14.6665 36.1046 15.5619 37 16.6665 37H33.164C34.1306 37 34.9589 36.3088 35.1318 35.3578L38.0712 19.1911C38.2944 17.9634 37.3512 16.8333 36.1034 16.8333H25.6665L28.7846 7.47891C29.0994 6.53468 28.6719 5.50271 27.7817 5.0576L27.0632 4.69835C26.2424 4.28792 25.2475 4.48882 24.6503 5.18562L15.148 16.2716Z" stroke="black"/>
<path d="M7.33333 35.1666V18.6666" stroke="black" stroke-linecap="round"/>
</svg>
