<svg width="44" height="44" viewBox="0 0 44 44" fill="none" xmlns="http://www.w3.org/2000/svg">
<path d="M9.52489 24.0435C10.1674 23.2086 10.9274 22.4404 11.5715 21.6487C12.6769 20.29 13.7426 18.8953 14.725 17.4447C16.0389 15.5043 17.4727 13.8165 19.4608 12.533C21.6733 11.1046 24.2611 10.2288 26.8931 10.073C26.9171 10.0715 26.9411 10.0701 26.9651 10.0689C29.0572 9.95573 31.1972 10.365 33.0272 11.4083C35.156 12.6219 36.7177 14.5551 37.5947 16.8273C37.8187 17.4077 38.0123 17.9996 38.1893 18.5958C40.0522 24.8707 32.5155 28.7677 29.2135 29.9507C25.9115 31.1336 18.6049 31.8692 16.9769 32.8175C15.2136 33.8445 12.8801 34.0637 11.0301 33.1328C8.82136 32.0214 7.83422 29.2909 8.16904 26.9357C8.32546 25.8352 8.8627 24.904 9.52489 24.0435Z" fill="white" fill-opacity="0.2"/>
<path d="M20.1667 14.6667L16.9224 13.0445C16.6447 12.9056 16.3384 12.8333 16.0279 12.8333H13.6618C13.1314 12.8333 12.6227 13.044 12.2476 13.4191L9.75253 15.9142C9.37746 16.2893 9.16675 16.798 9.16675 17.3284L9.16675 28.263C9.16675 28.9317 9.50095 29.5561 10.0573 29.9271L18.9242 35.8383C19.6612 36.3296 20.6335 36.2777 21.314 35.7106L31.1667 27.5" stroke="white"/>
<path fill-rule="evenodd" clip-rule="evenodd" d="M25.6205 22.4975C25.0171 21.6895 23.9065 21.4572 23.0298 21.9555L17.8248 24.9137C17.0422 25.3585 16.0589 25.2256 15.4224 24.5891L14.3819 23.5486C13.5503 22.717 13.6122 21.3508 14.5157 20.5979L23.277 13.2969C23.6364 12.9974 24.0895 12.8333 24.5574 12.8333H27.0278C27.3383 12.8333 27.6445 12.9056 27.9222 13.0445L33.7277 15.9472C34.4052 16.286 34.8333 16.9785 34.8333 17.7361L34.8333 28.813C34.8333 30.737 32.3821 31.5513 31.2308 30.0097L25.6205 22.4975Z" stroke="white"/>
<path d="M1.83333 31.1667V14.6667" stroke="white" stroke-linecap="round"/>
<path d="M1.83333 31.1667V14.6667" stroke="white" stroke-linecap="round"/>
<path d="M42.1666 31.1667V14.6667" stroke="white" stroke-linecap="round"/>
</svg>
