<svg width="44" height="44" viewBox="0 0 44 44" fill="none" xmlns="http://www.w3.org/2000/svg">
<path d="M8.78856 26.6067C9.43102 25.7719 10.1911 25.0036 10.8352 24.212C11.9406 22.8532 13.0063 21.4585 13.9886 20.0079C15.3026 18.0676 16.7364 16.3797 18.7244 15.0962C20.937 13.6678 23.5247 12.7921 26.1567 12.6362C26.1808 12.6347 26.2048 12.6333 26.2288 12.6321C28.3209 12.519 30.4609 12.9282 32.2908 13.9715C34.4197 15.1851 35.9814 17.1184 36.8583 19.3905C37.0823 19.9709 37.2759 20.5628 37.453 21.1591C39.3158 27.4339 31.7792 31.3309 28.4772 32.5139C25.1752 33.6968 17.8686 34.4325 16.2406 35.3807C14.4773 36.4078 12.1438 36.6269 10.2938 35.696C8.08503 34.5846 7.09789 31.8541 7.43271 29.4989C7.58913 28.3984 8.12637 27.4672 8.78856 26.6067Z" fill="white" fill-opacity="0.7"/>
<path d="M5.5 31.1667L16.5 20.1667L23.8333 27.5L38.5 12.8334" stroke="black" stroke-linecap="round" stroke-linejoin="round"/>
<path d="M38.5 18.3334V12.8334H33" stroke="black" stroke-linecap="round"/>
</svg>
